<svg xmlns="http://www.w3.org/2000/svg" width="1920" height="1080" viewBox="0 0 1920 1080" fill="none">
    <path d="M254.78 655.94C437.81 587.76 576.01 426.65 578.23 125.12C578.79 -176.18 443.92 -618.05 38.5399 -1242.25C25.47 -1263.78 11.99 -1285.68 -1.90002 -1308C399.17 -696.39 539.76 -252.68 541.32 54.39C541.71 361.81 403.03 532.6 215.57 607.64C26.95 683.06 -210.47 662.73 -437.53 597.2C-665.76 532.03 -883.69 421.67 -1063.32 326.25C-1040.81 338.14 -1017.96 350.44 -994.82 363.08C-814.95 459.65 -601.83 567.4 -380.05 633.54C-159.42 699.76 70.3799 724.25 254.8 655.94V655.96L254.78 655.94ZM353.52 769.01C522.67 711.89 653.99 567.62 657.86 278.45C659.28 -10.8 535.03 -445.38 130.96 -1085.05C119.76 -1104.73 108.23 -1124.76 96.34 -1145.14C502.76 -508.93 630.56 -71.0699 628.81 222.52C624.83 516.14 489.96 665.84 314.93 726.27C138.32 786.59 -79.6 757.95 -290.16 691.62C-501.77 625.04 -707.01 520.99 -885.43 424.02C-861.4 437.65 -837.09 451.56 -812.53 465.73C-636.05 562.27 -436.22 664 -231.32 730.15C-27.42 795.91 182.67 825.88 353.51 769.01V768.99L353.52 769.01ZM450.23 867.6C602.46 813.96 720.76 677.8 720.99 398.13C718.51 118.22 600.31 -305.66 210.4 -941.19C200.73 -959.22 190.8 -977.56 180.57 -996.22C577.26 -357.02 697.39 71.4401 697.88 354.77C695.7 637.91 571.71 776.38 412.51 830.61C251.6 884.45 53.7699 854.38 -139.56 790.49C-333.86 726.1 -524.94 628.08 -697.12 532.96C-671.9 547.78 -646.45 562.78 -620.83 577.94C-452.15 671.76 -266.98 767.19 -79.72 829.77C106.6 891.8 296.29 920.82 450.24 867.61L450.23 867.6ZM544.31 951.1C677.38 895.22 778.57 760.94 771.59 489.13C761.96 216.99 646.6 -193.1 279.41 -809.25C270.96 -825.8 262.29 -842.64 253.37 -859.75C630.27 -234.42 746.45 181.45 752.95 456.51C756.76 731.29 648.47 865.7 507.67 920.13C365.2 974.08 188.35 948.29 13.14 890.13C-162.94 831.39 -338.63 740.36 -500.99 649.07C-474.9 664.59 -448.65 680.21 -422.29 695.87C-264.53 785.23 -95.1901 873.08 73.46 928.69C241.29 983.74 409.64 1006.49 544.3 951.1H544.32H544.31ZM635.17 1018.87C747.53 956.65 829.09 820.21 812.74 555.63C794.03 290.7 679.59 -102.69 340.27 -687.9C332.73 -703.17 325.04 -718.66 317.18 -734.42C667.88 -135.88 782.54 264.43 797.51 532.17C809.99 799.56 720.49 934.81 599.85 994.15C477.74 1053.02 322.74 1036.17 166.61 986.86C9.70996 937 -149.5 854.7 -299.52 768.8C-272.88 784.58 -246.17 800.36 -219.39 816.14C-74.75 899.48 77.6899 977.78 226.82 1023.31C375.21 1068.35 521.39 1080.63 635.15 1018.88V1018.86L635.17 1018.87ZM722.09 1070.29C812.81 999.07 873.47 858.26 846.66 601.2C817.94 343.81 703.52 -30.0801 394.97 -575.84C388.12 -589.97 381.16 -604.3 374.08 -618.86C694.93 -56.75 809.31 325.13 834.07 585.58C856.71 845.68 787.74 984.59 688.44 1052.07C587.88 1119.09 455.53 1114.77 319.36 1077.16C182.52 1039.1 40.83 967.74 -95.04 888.97C-68.16 904.61 -41.29 920.19 -14.4 935.69C115.53 1011.1 250.04 1077.45 378.79 1110.17C506.93 1142.45 630.2 1141.12 722.08 1070.3L722.09 1070.29ZM804.34 1104.93C873.05 1023.32 912.48 877.48 875.17 628.93C836.34 380.11 722.04 28.4399 445.34 -471.83C438.94 -484.98 432.49 -498.29 425.96 -511.8C715.22 6.92993 829.64 367.65 864.52 620.01C897.74 872.06 850 1015.93 772.62 1093.37C694.22 1170.45 585.08 1181.16 469.6 1157.79C353.55 1134.06 230.39 1076.19 110.04 1006.79C136.84 1021.95 163.62 1036.99 190.33 1051.89C304.25 1116.84 419.92 1168.68 527.6 1186.2C634.77 1203.37 734.71 1186.28 804.34 1104.99V1104.94V1104.93ZM881.13 1122.64C928.02 1030.35 946.81 880.04 899.57 641.59C851.27 402.93 737.84 76.0601 493.02 -374.75C486.89 -387.07 480.73 -399.53 474.51 -412.15C731.8 58.46 845.72 395.38 890.39 638.25C933.84 880.88 907.07 1029.58 851.64 1117.71C795.44 1205.56 709.8 1232.87 615.61 1225.83C520.97 1218.52 417.22 1176.82 313.57 1119.7C340.05 1134.09 366.41 1148.29 392.66 1162.29C489.46 1213.64 585.35 1248.24 671.44 1248.62C757.13 1248.75 833.54 1214.7 881.13 1122.64ZM951.67 1123.73C977.43 1021.37 976.84 868.13 920.99 641.77C864.45 415.25 753.19 115.61 539.44 -283.38C533.38 -295.02 527.32 -306.77 521.25 -318.67C747.07 100.85 859.36 411.49 912.86 643.04C965.5 874.4 958.68 1026.73 924.73 1125.27C890.21 1223.6 828.03 1268.15 755.58 1279.11C682.78 1289.87 599.28 1267.02 513.46 1225.7C539.33 1239.04 565.02 1252.15 590.59 1265.03C669.09 1299.08 744.36 1313.84 808.52 1295.62C872.36 1277.26 925.4 1225.94 951.66 1123.75H951.69L951.67 1123.73ZM1015.39 1109.02C1021.2 997.97 1003.12 844.03 940.46 631.97C877.36 419.82 769.95 149.51 586.03 -196.7C579.87 -207.81 573.76 -218.98 567.65 -230.29C763.11 136.68 872.26 418.77 933.01 636.84C993.22 854.8 1004.7 1008.76 991.22 1116.6C977.36 1224.31 938.26 1285.91 887.75 1316.02C837 1346 774.56 1344.47 707.8 1322.85C732.8 1334.93 757.63 1346.75 782.24 1358.28C841.19 1371.1 895.12 1363.64 937.2 1325.9C979.09 1288.07 1009.28 1219.98 1015.42 1109.02H1015.39ZM1071.94 1080.04C1059.41 962.21 1026.35 810.28 958.97 614.76C891.37 419.18 789.61 180.01 633.9 -113.62C627.48 -124.32 621.16 -135.08 614.87 -145.91C781.46 168.3 885.67 419.87 951.77 622.22C1017.56 824.49 1045.06 977.56 1050.61 1092.98C1055.92 1208.35 1039.12 1286.07 1010.56 1335.95C981.83 1385.75 941.21 1407.67 894.77 1409.65C918.71 1420.28 942.4 1430.63 965.86 1440.65C1003.98 1428.42 1035.85 1396.8 1055.99 1339.18C1076.01 1281.5 1084.33 1197.81 1071.98 1080.02L1071.94 1080.04ZM1121.42 1039.1C1092.63 916.79 1047.37 769.73 977.62 592.84C907.79 415.93 813.49 209.18 684.21 -33.08C677.41 -43.5 670.7 -53.97 664.07 -64.48C803.53 197.76 900.96 417.37 970.18 601.85C1039.28 786.3 1080.11 935.6 1102.78 1056.46C1125.34 1177.27 1129.64 1269.62 1122.73 1339.26C1115.74 1408.87 1097.5 1455.8 1072.63 1484.91C1095.27 1493.96 1117.65 1502.68 1139.75 1511.06C1155.82 1470.49 1165.16 1413.49 1163.77 1336.24C1162.31 1258.97 1150.13 1161.42 1121.41 1039.13V1039.1H1121.42ZM1164.57 989.37C1121.91 865.1 1067.54 725.73 997.78 569.2C927.99 412.66 842.88 238.99 738.01 45.92C730.69 35.63 723.49 25.33 716.39 14.99C830.62 227.06 919.52 413.78 989.6 578.49C1059.62 743.19 1110.81 885.91 1148.3 1009.72C1185.76 1133.52 1209.54 1238.4 1223.69 1327.17C1237.79 1415.93 1242.23 1488.54 1240.05 1547.5C1261.24 1554.84 1282.09 1561.84 1302.66 1568.48C1295.7 1497.31 1282.33 1414.63 1260.21 1318.71C1238.07 1222.79 1207.19 1113.63 1164.54 989.36H1164.57V989.37ZM1202.81 934.97C1148.95 811.32 1088.6 682.12 1021.11 547.15C953.59 412.15 878.92 271.34 796.29 124.44C788.33 114.14 780.5 103.87 772.79 93.58C863.88 258.19 942.78 411.84 1011.45 555.4C1080.08 698.96 1138.45 832.43 1188.23 956.62C1238.01 1080.81 1279.2 1195.74 1313.31 1302.17C1347.41 1408.62 1374.41 1506.56 1395.63 1596.78C1415.17 1602.33 1434.38 1607.53 1453.25 1612.36C1422.78 1509.87 1387.09 1402.35 1345.57 1289.53C1304.04 1176.73 1256.66 1058.62 1202.82 934.99L1202.81 934.97ZM1238.52 880.97C1176.29 760.45 1112.99 643.44 1049.62 530.39C986.21 417.32 922.73 308.22 860.02 203.48C851.28 193.04 842.71 182.66 834.27 172.29C904.5 293.06 972.44 414.4 1037.65 536.08C1102.86 657.76 1165.32 779.75 1224.61 901.79C1283.88 1023.83 1339.98 1145.89 1392.39 1267.72C1444.8 1389.56 1493.55 1511.13 1538.19 1632.16C1555.96 1635.86 1573.37 1639.21 1590.42 1642.19C1536.84 1509.65 1479.95 1379.6 1420.93 1252.56C1361.91 1125.53 1300.75 1001.5 1238.55 881L1238.53 880.97H1238.52ZM1275.06 833.47C1207.36 718.39 1143.77 614.85 1085.85 523.21C1027.92 431.56 975.64 351.8 930.05 284.09C920.42 273.38 910.97 262.74 901.7 252.15C953.66 333.72 1010.31 424.66 1070.5 524.59C1130.68 624.51 1194.44 733.45 1260.34 850.93C1326.23 968.39 1394.27 1094.42 1462.65 1228.36C1531.02 1362.32 1599.76 1504.21 1666.69 1653.34C1682.56 1655.18 1698.08 1656.65 1713.2 1657.77C1638.08 1498.93 1562.23 1350.34 1488.41 1212.76C1414.56 1075.15 1342.74 948.56 1275.03 833.48H1275.06V833.47ZM1316.83 799.54C1246.44 691.94 1184.69 602.3 1132.86 530.41C1081 458.5 1039.08 404.32 1007.35 367.35C996.69 356.22 986.28 345.2 976.05 334.24C1012.8 382.45 1058.61 446.13 1112.88 525.51C1167.12 604.88 1229.81 699.98 1299.47 810.75C1369.09 921.5 1445.71 1047.91 1526.86 1189.65C1607.99 1331.37 1693.67 1488.43 1780.44 1660.21C1794.33 1660.18 1807.83 1659.77 1820.92 1659.02C1727.47 1480.51 1636.28 1319.35 1551.23 1176.01C1466.13 1032.66 1387.17 907.11 1316.82 799.54H1316.83ZM1369.23 787.24C1298.85 688.86 1240.31 612.6 1194.31 557.51C1148.23 502.4 1114.64 468.48 1092.86 454.37C1081.08 442.68 1069.54 431.1 1058.24 419.65C1083.39 441.71 1119.97 482.86 1168.22 544.11C1216.41 605.36 1276.35 686.76 1347.02 788.94C1417.64 891.11 1499.05 1014.07 1588.8 1158.06C1678.5 1302.03 1776.52 1467.03 1878.71 1652.88C1890.53 1650.99 1901.97 1648.74 1912.98 1646.14C1806.4 1457.84 1705.16 1292.18 1613.49 1149.14C1521.75 1006.07 1439.57 885.59 1369.27 787.23H1369.24L1369.23 787.24ZM1438.52 805.53C1370.6 717.78 1315.85 653.32 1274.3 610.69C1232.68 568.04 1204.2 547.21 1187.43 546.28C1174.41 533.87 1161.64 521.61 1149.1 509.5C1167.18 514.32 1197.19 539.32 1240.34 586.25C1283.42 633.16 1339.67 702.01 1408.83 794.08C1477.93 886.15 1559.98 1001.43 1653.04 1140.81C1746.02 1280.16 1850.02 1443.61 1960.96 1631.53C1970.68 1627.82 1980 1623.78 1988.87 1619.39C1876.88 1434.71 1772.7 1275 1680.12 1139.65C1587.47 1004.27 1506.38 893.26 1438.51 805.52V805.54L1438.52 805.53ZM1531.57 864.21C1468.25 788.22 1417.06 732.97 1377.51 696.91C1337.91 660.82 1309.94 643.92 1292.11 644.3C1277.69 631 1263.58 617.9 1249.71 604.97C1266.29 603.51 1293.83 620.74 1333.88 658.6C1373.88 696.46 1426.36 754.94 1491.73 835.67C1557.05 916.38 1635.23 1019.36 1725.18 1145.83C1815.05 1272.27 1916.67 1422.22 2027.05 1596.59C2034.64 1591.15 2041.8 1585.35 2048.51 1579.24C1941.6 1415.33 1843.62 1274.5 1756.96 1155.72C1670.25 1036.94 1594.84 940.2 1531.58 864.21H1531.57ZM1655.34 973.84C1598.55 910.54 1549.85 860.96 1508.84 823.97C1467.79 786.98 1434.42 762.61 1407.84 749.65C1391.91 735.31 1376.28 721.19 1360.98 707.28C1383.09 713.04 1413.58 732.99 1453.56 768.62C1493.52 804.24 1543.05 855.57 1602.62 923.97C1662.16 992.35 1731.76 1077.81 1811.06 1181.54C1890.34 1285.26 1979.36 1407.25 2076.71 1548.55C2082.15 1541.43 2087.16 1533.99 2091.74 1526.24C2003.62 1404.1 1922.74 1297.64 1849.87 1205.89C1776.99 1114.14 1712.11 1037.13 1655.34 973.84ZM1964.79 1299.09C2015.2 1351.65 2066.51 1405.65 2118.69 1461.13C2116.22 1470.4 2113.33 1479.41 2110.02 1488.11C2041.43 1403.23 1976.94 1326.28 1916.63 1256.77C1856.32 1187.25 1800.22 1125.16 1748.2 1069.99C1696.19 1014.81 1648.32 966.56 1604.35 924.71C1560.38 882.85 1520.35 847.4 1483.91 817.81C1500.82 832.88 1518.09 848.19 1535.66 863.76C1580.57 908.03 1626.44 953.66 1673.21 1000.62C1719.97 1047.6 1767.66 1095.93 1816.26 1145.65C1864.86 1195.39 1914.37 1246.52 1964.78 1299.08H1964.8L1964.79 1299.09Z" fill="#0D0C3F"/>
</svg>
